<?xml version="1.0" encoding="utf-8"?>
<!-- Generator: Adobe Illustrator 19.0.0, SVG Export Plug-In . SVG Version: 6.00 Build 0)  -->
<svg version="1.1" id="图层_1" xmlns="http://www.w3.org/2000/svg" xmlns:xlink="http://www.w3.org/1999/xlink" x="0px" y="0px"
	 viewBox="0 0 110 40" enable-background="new 0 0 110 40" xml:space="preserve">
<g id="XMLID_102_">
	<path id="XMLID_105_" fill-rule="evenodd" clip-rule="evenodd" fill="#196EB0" d="M22.526,1.094
		c-1.783-1.551-4.062-1.429-5.846,0.216L0.712,17.641c-0.826,0.826-1.029,1.601-0.09,2.39c0,0,6.687,7.125,9.121,9.728
		c0.807,0.807,1.351,1.187,2.417,0.124c2.139-2.139,6.714-6.595,6.714-6.595c0.979-0.768,1.994-0.029,1.994-0.029
		s4.561,4.611,6.687,6.734c0.979,0.981,1.535,0.509,2.226-0.179c1.564-1.564,6.632-6.922,6.632-6.922l-1.646-1.53l1.174-1.179
		l-1.369-1.39l1.042-1.171l-1.253-1.258l1.24-1.35L22.526,1.094z M14.863,20.564l-2.751,1.965l-5.305-5.368
		c0,0,4.126-4.387,8.972-5.761l3.603,5.041l3.076-5.107c0,0,5.632,1.899,9.236,5.695l-5.437,5.629l-2.815-2.028l1.833-4.904
		l-4.323,4.387h-3.208L13.75,15.99L14.863,20.564z M38.554,20.886l-1.279,1.277l1.279,1.277l1.276-1.277L38.554,20.886z
		 M37.293,18.316l-1.279,1.277l1.279,1.28l1.277-1.28L37.293,18.316z M36.836,15.705l-1.276,1.277l1.276,1.276l1.279-1.276
		L36.836,15.705z M36.301,23.901l-1.277,1.277l1.277,1.277l1.28-1.277L36.301,23.901z"/>
	<path id="XMLID_104_" fill-rule="evenodd" clip-rule="evenodd" fill="#E4E3E3" d="M20.659,25.238l6.247,6.244
		c0.493,0.491,0.493,1.29,0,1.783l-6.247,6.244c-0.493,0.49-1.29,0.49-1.783,0l-6.246-6.244c-0.494-0.493-0.494-1.293,0-1.783
		l6.246-6.244C19.369,24.745,20.166,24.745,20.659,25.238z"/>
	<polygon id="XMLID_103_" fill-rule="evenodd" clip-rule="evenodd" fill="#D71718" points="19.252,19.193 17.026,20.633 
		17.68,17.95 15.454,16.051 18.401,15.789 19.252,13.302 20.3,15.855 22.985,15.987 20.693,17.884 21.545,20.569 	"/>
</g>
<g id="XMLID_2_">
	<g id="XMLID_37_">
		<g id="XMLID_305_">
			<path id="XMLID_335_" fill="#021E28" d="M45.782,35.15l-1.341-4.265h0.767l0.697,2.463l0.259,0.915
				c0.011-0.047,0.086-0.339,0.227-0.88l0.697-2.497h0.762l0.656,2.474l0.219,0.816l0.251-0.824l0.752-2.465h0.721l-1.369,4.265
				h-0.771l-0.696-2.553l-0.169-0.727l-0.887,3.28H45.782z"/>
			<path id="XMLID_333_" fill="#021E28" d="M51.88,35.15l-1.341-4.265h0.767l0.696,2.463l0.259,0.915
				c0.011-0.047,0.087-0.339,0.228-0.88l0.697-2.497h0.763l0.655,2.474l0.219,0.816l0.251-0.824l0.75-2.465h0.723l-1.369,4.265
				h-0.772l-0.696-2.553l-0.169-0.727l-0.887,3.28H51.88z"/>
			<path id="XMLID_331_" fill="#021E28" d="M57.977,35.15l-1.339-4.265h0.765l0.698,2.463l0.259,0.915
				c0.011-0.047,0.087-0.339,0.227-0.88l0.697-2.497h0.763l0.655,2.474l0.218,0.816l0.252-0.824l0.749-2.465h0.722l-1.368,4.265
				h-0.771l-0.697-2.553l-0.17-0.727l-0.887,3.28H57.977z"/>
			<path id="XMLID_329_" fill="#021E28" d="M63.011,35.15v-0.823h0.845v0.823H63.011z"/>
			<path id="XMLID_327_" fill="#021E28" d="M65.147,35.15v-4.265h0.664v0.6c0.137-0.209,0.319-0.377,0.547-0.505
				c0.228-0.128,0.488-0.191,0.779-0.191c0.326,0,0.592,0.065,0.798,0.198c0.208,0.13,0.354,0.314,0.44,0.549
				c0.346-0.497,0.797-0.747,1.353-0.747c0.433,0,0.768,0.117,1.002,0.351c0.234,0.234,0.351,0.595,0.351,1.081v2.927h-0.738v-2.686
				c0-0.288-0.025-0.497-0.074-0.625c-0.046-0.127-0.135-0.229-0.261-0.307c-0.126-0.076-0.275-0.116-0.445-0.116
				c-0.308,0-0.564,0.1-0.767,0.301c-0.204,0.198-0.305,0.516-0.305,0.957v2.476h-0.741V32.38c0-0.32-0.062-0.562-0.184-0.721
				c-0.12-0.161-0.318-0.242-0.593-0.242c-0.208,0-0.402,0.054-0.579,0.16c-0.178,0.108-0.307,0.265-0.386,0.47
				c-0.079,0.207-0.119,0.503-0.119,0.892v2.212H65.147z"/>
			<path id="XMLID_324_" fill="#021E28" d="M72.185,30.096v-0.83h0.742v0.83H72.185z M72.185,35.15v-4.265h0.742v4.265H72.185z"/>
			<path id="XMLID_322_" fill="#021E28" d="M78.743,35.15v-4.265h0.669v0.647c0.171-0.303,0.328-0.502,0.472-0.597
				c0.144-0.098,0.303-0.145,0.475-0.145c0.251,0,0.506,0.078,0.763,0.233l-0.255,0.671c-0.182-0.105-0.364-0.157-0.544-0.157
				c-0.162,0-0.309,0.047-0.438,0.144c-0.129,0.094-0.221,0.225-0.275,0.394c-0.083,0.256-0.124,0.539-0.124,0.842v2.233H78.743z"/>
			<path id="XMLID_320_" fill="#021E28" d="M85.787,35.15v-4.265h0.668v0.608c0.322-0.468,0.786-0.703,1.393-0.703
				c0.266,0,0.508,0.046,0.729,0.139c0.221,0.093,0.386,0.213,0.498,0.363c0.108,0.15,0.186,0.327,0.23,0.533
				c0.027,0.136,0.04,0.369,0.04,0.703v2.622h-0.742v-2.593c0-0.295-0.028-0.516-0.087-0.662c-0.057-0.145-0.159-0.262-0.307-0.35
				c-0.146-0.085-0.319-0.129-0.517-0.129c-0.315,0-0.588,0.099-0.818,0.295c-0.229,0.194-0.345,0.564-0.345,1.111v2.328H85.787z"/>
			<path id="XMLID_318_" fill="#021E28" d="M90.695,35.15v-0.823h0.844v0.823H90.695z"/>
			<path id="XMLID_315_" fill="#021E28" d="M96.776,33.018c0-0.789,0.224-1.375,0.676-1.754c0.377-0.316,0.835-0.474,1.377-0.474
				c0.601,0,1.093,0.193,1.474,0.576c0.384,0.384,0.576,0.914,0.576,1.592c0,0.547-0.085,0.98-0.253,1.294
				c-0.17,0.315-0.416,0.56-0.739,0.733c-0.322,0.174-0.675,0.261-1.056,0.261c-0.614,0-1.108-0.192-1.487-0.574
				C96.965,34.29,96.776,33.739,96.776,33.018z M97.539,33.018c0,0.546,0.122,0.956,0.367,1.226
				c0.243,0.271,0.552,0.408,0.923,0.408c0.368,0,0.675-0.137,0.919-0.411c0.243-0.272,0.366-0.689,0.366-1.247
				c0-0.529-0.123-0.927-0.369-1.199c-0.246-0.271-0.552-0.408-0.916-0.408c-0.371,0-0.68,0.136-0.923,0.405
				C97.66,32.064,97.539,32.473,97.539,33.018z"/>
			<path id="XMLID_313_" fill="#021E28" d="M101.748,35.15v-4.265h0.663v0.6c0.139-0.209,0.32-0.377,0.548-0.505
				c0.229-0.128,0.489-0.191,0.779-0.191c0.325,0,0.59,0.065,0.798,0.198c0.208,0.13,0.352,0.314,0.438,0.549
				c0.347-0.497,0.797-0.747,1.353-0.747c0.435,0,0.77,0.117,1.002,0.351c0.234,0.234,0.351,0.595,0.351,1.081v2.927h-0.738v-2.686
				c0-0.288-0.024-0.497-0.072-0.625c-0.048-0.127-0.136-0.229-0.262-0.307c-0.127-0.076-0.275-0.116-0.445-0.116
				c-0.309,0-0.564,0.1-0.767,0.301c-0.203,0.198-0.306,0.516-0.306,0.957v2.476h-0.741V32.38c0-0.32-0.062-0.562-0.182-0.721
				c-0.121-0.161-0.319-0.242-0.595-0.242c-0.208,0-0.402,0.054-0.579,0.16c-0.178,0.108-0.306,0.265-0.387,0.47
				c-0.078,0.207-0.117,0.503-0.117,0.892v2.212H101.748z"/>
			<path id="XMLID_311_" fill="#021E28" d="M96.012,34.944c-0.372,0.197-0.812,0.295-1.322,0.295c-0.689,0-1.246-0.197-1.67-0.591
				c-0.421-0.395-0.635-0.906-0.635-1.534c0-0.7,0.23-1.263,0.685-1.686c0.458-0.427,1.067-0.638,1.828-0.638
				c0.425,0,0.799,0.068,1.124,0.207v0.697c-0.358-0.22-0.743-0.332-1.153-0.332c-0.493,0-0.898,0.155-1.214,0.467
				c-0.318,0.311-0.475,0.72-0.475,1.227c0,0.498,0.149,0.893,0.445,1.179c0.298,0.287,0.698,0.432,1.198,0.432
				c0.422,0,0.818-0.123,1.19-0.369V34.944z"/>
			<path id="XMLID_309_" fill="#021E28" d="M84.964,34.9c-0.371,0.196-0.812,0.294-1.322,0.294c-0.689,0-1.245-0.197-1.668-0.592
				c-0.423-0.393-0.635-0.905-0.635-1.534c0-0.701,0.228-1.263,0.685-1.687c0.457-0.424,1.065-0.637,1.828-0.637
				c0.425,0,0.799,0.07,1.122,0.208v0.697c-0.358-0.221-0.742-0.332-1.151-0.332c-0.495,0-0.898,0.156-1.216,0.467
				c-0.316,0.312-0.474,0.72-0.474,1.227c0,0.499,0.149,0.892,0.445,1.179c0.297,0.288,0.697,0.433,1.198,0.433
				c0.421,0,0.819-0.124,1.19-0.37V34.9z"/>
			<path id="XMLID_306_" fill="#021E28" d="M77.633,33.189h-3.028c0.009,0.473,0.139,0.838,0.386,1.096
				c0.245,0.256,0.583,0.386,1.013,0.386c0.483,0,0.929-0.158,1.333-0.473v0.638c-0.377,0.272-0.874,0.407-1.494,0.407
				c-0.608,0-1.082-0.192-1.43-0.578c-0.346-0.387-0.52-0.929-0.52-1.629c0-0.66,0.189-1.2,0.568-1.616
				c0.377-0.416,0.849-0.625,1.41-0.625c0.562,0,0.996,0.179,1.303,0.539c0.307,0.361,0.46,0.86,0.46,1.498V33.189z M76.93,32.612
				c-0.002-0.393-0.1-0.699-0.287-0.916c-0.188-0.219-0.451-0.328-0.786-0.328c-0.325,0-0.599,0.115-0.826,0.345
				c-0.225,0.229-0.366,0.529-0.419,0.9H76.93z"/>
		</g>
	</g>
	<g id="XMLID_3_">
		<path id="XMLID_34_" fill="#1B6FB0" d="M62.173,9.534V5.578h-2.596v2.345h-3.315v2.757l3.13-0.01
			C60.678,10.693,61.968,10.781,62.173,9.534z"/>
		<path id="XMLID_31_" fill="#1B6FB0" d="M47.145,10.671l3.133,0.01V7.933h-3.318V5.578h-2.596v3.957
			C44.57,10.781,45.86,10.693,47.145,10.671z"/>
		<polygon id="XMLID_28_" fill="#1B6FB0" points="54.939,4.561 51.541,4.561 51.541,11.926 43.516,11.926 43.516,14.858 
			51.005,14.858 51.541,14.858 51.541,25.613 54.939,25.613 54.939,14.858 63.022,14.858 63.022,11.926 54.939,11.926 		"/>
		<path id="XMLID_25_" fill="#1B6FB0" d="M44.837,21.915c-0.299,0.632-1.322,0.949-1.322,0.949v2.749h1.589
			c1.252,0.063,2.145-0.57,2.681-1.897l3.006-7.97h-3.718L44.837,21.915z"/>
		<path id="XMLID_22_" fill="#1B6FB0" d="M61.56,21.915l-2.238-6.169h-3.717l3.005,7.97c0.537,1.328,1.43,1.961,2.682,1.897h1.731
			v-2.749C63.022,22.864,61.859,22.547,61.56,21.915z"/>
		<rect id="XMLID_19_" x="74.626" y="9.286" fill="#1B6FB0" width="3.361" height="16.331"/>
		<path id="XMLID_16_" fill="#1B6FB0" d="M67.757,22.53c-0.111,0.174-0.659,0.457-0.659,0.457l-0.021,2.481
			c0,0,2.39,0.395,3.169-0.385c0.499-0.5,0.886-2.429,0.886-2.429l1.894-10.032h-3.251C69.776,12.622,67.949,22.233,67.757,22.53z"
			/>
		<path id="XMLID_13_" fill="#1B6FB0" d="M84.928,22.53c-0.192-0.297-2.018-9.908-2.018-9.908h-3.251l1.895,10.032
			c0,0,0.389,1.929,0.887,2.429c0.777,0.78,3.169,0.385,3.169,0.385l-0.021-2.481C85.589,22.987,85.038,22.703,84.928,22.53z"/>
		<path id="XMLID_10_" fill="#1B6FB0" d="M85.075,5.509L70.531,5.578l0.297-1.017h-2.947l-1.548,6.699h2.947l0.774-2.906h12.35
			c0,0,0.818-0.026,0.78,0.73v2.115h2.966V6.537C86.083,5.559,85.075,5.509,85.075,5.509z"/>
		<polygon id="XMLID_7_" fill="#1B6FB0" points="105.423,9.672 103.1,9.672 102.214,12.223 101.23,9.188 96.761,9.188 
			95.777,12.601 95.006,9.833 92.591,9.833 94.312,16.23 92.705,21.697 94.94,21.697 95.777,19.506 96.583,22.555 98.996,22.555 
			96.85,15.906 99.085,9.852 100.933,15.82 98.772,21.781 101.096,21.781 101.94,19.67 102.538,22.471 104.862,22.471 
			103.582,16.282 		"/>
		<path id="XMLID_4_" fill="#1B6FB0" d="M107.437,4.598c-4.491-0.115-18.051,0-18.051,0v20.77h2.86V7.633c0,0,9.255-0.08,12.338,0
			c0.377,0.009,1.093,0.048,1.07,1.118v13.284c0.059,0.57-0.178,0.853-0.714,0.853h-0.055v2.766h1.664
			c1.393-0.24,1.989-0.509,2.057-2.372V6.045C108.606,4.889,107.886,4.61,107.437,4.598z"/>
	</g>
</g>
</svg>
